<mxfile host="app.diagrams.net" modified="2023-11-01T14:01:13.623Z" agent="Mozilla/5.0 (Windows NT 10.0; Win64; x64) AppleWebKit/537.36 (KHTML, like Gecko) Chrome/118.0.0.0 Safari/537.36" etag="K50TEIwMuWyLoeGICk1p" version="22.0.8" type="device">
  <diagram name="Trang-1" id="Vf8h_Z2z9nWvPjT_kbbs">
    <mxGraphModel dx="1118" dy="604" grid="1" gridSize="10" guides="1" tooltips="1" connect="1" arrows="1" fold="1" page="1" pageScale="1" pageWidth="827" pageHeight="1169" math="0" shadow="0">
      <root>
        <mxCell id="0" />
        <mxCell id="1" parent="0" />
        <mxCell id="VWnZA8_5SV95Ae4IL8HQ-1" value="Chủ trọ" style="shape=umlActor;verticalLabelPosition=bottom;verticalAlign=top;html=1;outlineConnect=0;fontFamily=Times New Roman;" vertex="1" parent="1">
          <mxGeometry x="70" y="180" width="30" height="60" as="geometry" />
        </mxCell>
        <mxCell id="VWnZA8_5SV95Ae4IL8HQ-2" value="Quản lý khách hàng" style="ellipse;whiteSpace=wrap;html=1;" vertex="1" parent="1">
          <mxGeometry x="340" y="170" width="120" height="80" as="geometry" />
        </mxCell>
        <mxCell id="VWnZA8_5SV95Ae4IL8HQ-3" value="Đăng nhập" style="ellipse;whiteSpace=wrap;html=1;" vertex="1" parent="1">
          <mxGeometry x="140" y="330" width="120" height="80" as="geometry" />
        </mxCell>
        <mxCell id="VWnZA8_5SV95Ae4IL8HQ-4" value="Quản lý phương tiện" style="ellipse;whiteSpace=wrap;html=1;" vertex="1" parent="1">
          <mxGeometry x="340" y="340" width="120" height="80" as="geometry" />
        </mxCell>
        <mxCell id="VWnZA8_5SV95Ae4IL8HQ-5" value="Cập nhật khách hàng" style="ellipse;whiteSpace=wrap;html=1;" vertex="1" parent="1">
          <mxGeometry x="570" y="330" width="120" height="80" as="geometry" />
        </mxCell>
        <mxCell id="VWnZA8_5SV95Ae4IL8HQ-6" value="Danh sách khách hàng" style="ellipse;whiteSpace=wrap;html=1;" vertex="1" parent="1">
          <mxGeometry x="570" y="176" width="120" height="80" as="geometry" />
        </mxCell>
        <mxCell id="VWnZA8_5SV95Ae4IL8HQ-7" value="Thêm mới khách hàng" style="ellipse;whiteSpace=wrap;html=1;" vertex="1" parent="1">
          <mxGeometry x="570" y="60" width="120" height="80" as="geometry" />
        </mxCell>
        <mxCell id="VWnZA8_5SV95Ae4IL8HQ-8" value="" style="endArrow=classic;html=1;rounded=0;entryX=0;entryY=0.5;entryDx=0;entryDy=0;" edge="1" parent="1" source="VWnZA8_5SV95Ae4IL8HQ-1" target="VWnZA8_5SV95Ae4IL8HQ-2">
          <mxGeometry width="50" height="50" relative="1" as="geometry">
            <mxPoint x="390" y="290" as="sourcePoint" />
            <mxPoint x="440" y="240" as="targetPoint" />
          </mxGeometry>
        </mxCell>
        <mxCell id="VWnZA8_5SV95Ae4IL8HQ-9" value="" style="endArrow=classic;html=1;rounded=0;exitX=0.094;exitY=0.888;exitDx=0;exitDy=0;exitPerimeter=0;entryX=1;entryY=0;entryDx=0;entryDy=0;dashed=1;" edge="1" parent="1" source="VWnZA8_5SV95Ae4IL8HQ-2" target="VWnZA8_5SV95Ae4IL8HQ-3">
          <mxGeometry width="50" height="50" relative="1" as="geometry">
            <mxPoint x="250" y="320" as="sourcePoint" />
            <mxPoint x="300" y="270" as="targetPoint" />
          </mxGeometry>
        </mxCell>
        <mxCell id="VWnZA8_5SV95Ae4IL8HQ-10" value="&amp;lt;&amp;lt;Include&amp;gt;&amp;gt;" style="text;html=1;strokeColor=none;fillColor=none;align=center;verticalAlign=middle;whiteSpace=wrap;rounded=0;" vertex="1" parent="1">
          <mxGeometry x="230" y="270" width="60" height="30" as="geometry" />
        </mxCell>
        <mxCell id="VWnZA8_5SV95Ae4IL8HQ-11" value="" style="endArrow=classic;html=1;rounded=0;dashed=1;entryX=0.5;entryY=0;entryDx=0;entryDy=0;" edge="1" parent="1" target="VWnZA8_5SV95Ae4IL8HQ-4">
          <mxGeometry width="50" height="50" relative="1" as="geometry">
            <mxPoint x="400" y="250" as="sourcePoint" />
            <mxPoint x="396" y="330" as="targetPoint" />
          </mxGeometry>
        </mxCell>
        <mxCell id="VWnZA8_5SV95Ae4IL8HQ-12" value="" style="endArrow=classic;html=1;rounded=0;dashed=1;entryX=0.181;entryY=0.004;entryDx=0;entryDy=0;entryPerimeter=0;exitX=1;exitY=1;exitDx=0;exitDy=0;" edge="1" parent="1" source="VWnZA8_5SV95Ae4IL8HQ-2" target="VWnZA8_5SV95Ae4IL8HQ-5">
          <mxGeometry width="50" height="50" relative="1" as="geometry">
            <mxPoint x="410" y="260" as="sourcePoint" />
            <mxPoint x="412" y="342" as="targetPoint" />
          </mxGeometry>
        </mxCell>
        <mxCell id="VWnZA8_5SV95Ae4IL8HQ-13" value="" style="endArrow=classic;html=1;rounded=0;dashed=1;entryX=0.007;entryY=0.419;entryDx=0;entryDy=0;entryPerimeter=0;exitX=1;exitY=0.5;exitDx=0;exitDy=0;" edge="1" parent="1" source="VWnZA8_5SV95Ae4IL8HQ-2" target="VWnZA8_5SV95Ae4IL8HQ-6">
          <mxGeometry width="50" height="50" relative="1" as="geometry">
            <mxPoint x="420" y="270" as="sourcePoint" />
            <mxPoint x="422" y="352" as="targetPoint" />
          </mxGeometry>
        </mxCell>
        <mxCell id="VWnZA8_5SV95Ae4IL8HQ-14" value="" style="endArrow=classic;html=1;rounded=0;dashed=1;entryX=0;entryY=0.5;entryDx=0;entryDy=0;exitX=1;exitY=0;exitDx=0;exitDy=0;" edge="1" parent="1" source="VWnZA8_5SV95Ae4IL8HQ-2" target="VWnZA8_5SV95Ae4IL8HQ-7">
          <mxGeometry width="50" height="50" relative="1" as="geometry">
            <mxPoint x="430" y="280" as="sourcePoint" />
            <mxPoint x="432" y="362" as="targetPoint" />
          </mxGeometry>
        </mxCell>
        <mxCell id="VWnZA8_5SV95Ae4IL8HQ-15" value="&amp;lt;&amp;lt;extend&amp;gt;&amp;gt;" style="text;html=1;strokeColor=none;fillColor=none;align=center;verticalAlign=middle;whiteSpace=wrap;rounded=0;" vertex="1" parent="1">
          <mxGeometry x="340" y="280" width="60" height="30" as="geometry" />
        </mxCell>
        <mxCell id="VWnZA8_5SV95Ae4IL8HQ-16" value="&amp;lt;&amp;lt;extend&amp;gt;&amp;gt;" style="text;html=1;strokeColor=none;fillColor=none;align=center;verticalAlign=middle;whiteSpace=wrap;rounded=0;" vertex="1" parent="1">
          <mxGeometry x="460" y="280" width="60" height="30" as="geometry" />
        </mxCell>
        <mxCell id="VWnZA8_5SV95Ae4IL8HQ-17" value="&amp;lt;&amp;lt;extend&amp;gt;&amp;gt;" style="text;html=1;strokeColor=none;fillColor=none;align=center;verticalAlign=middle;whiteSpace=wrap;rounded=0;" vertex="1" parent="1">
          <mxGeometry x="490" y="210" width="60" height="30" as="geometry" />
        </mxCell>
        <mxCell id="VWnZA8_5SV95Ae4IL8HQ-18" value="&amp;lt;&amp;lt;extend&amp;gt;&amp;gt;" style="text;html=1;strokeColor=none;fillColor=none;align=center;verticalAlign=middle;whiteSpace=wrap;rounded=0;" vertex="1" parent="1">
          <mxGeometry x="510" y="130" width="60" height="30" as="geometry" />
        </mxCell>
        <mxCell id="VWnZA8_5SV95Ae4IL8HQ-20" value="Xóa khách hàng" style="ellipse;whiteSpace=wrap;html=1;" vertex="1" parent="1">
          <mxGeometry x="340" y="10" width="120" height="80" as="geometry" />
        </mxCell>
        <mxCell id="VWnZA8_5SV95Ae4IL8HQ-21" value="" style="endArrow=classic;html=1;rounded=0;dashed=1;entryX=0.5;entryY=1;entryDx=0;entryDy=0;exitX=0.5;exitY=0;exitDx=0;exitDy=0;" edge="1" parent="1" source="VWnZA8_5SV95Ae4IL8HQ-2" target="VWnZA8_5SV95Ae4IL8HQ-20">
          <mxGeometry width="50" height="50" relative="1" as="geometry">
            <mxPoint x="452" y="192" as="sourcePoint" />
            <mxPoint x="580" y="110" as="targetPoint" />
          </mxGeometry>
        </mxCell>
        <mxCell id="VWnZA8_5SV95Ae4IL8HQ-22" value="&amp;lt;&amp;lt;extend&amp;gt;&amp;gt;" style="text;html=1;strokeColor=none;fillColor=none;align=center;verticalAlign=middle;whiteSpace=wrap;rounded=0;" vertex="1" parent="1">
          <mxGeometry x="414" y="100" width="60" height="30" as="geometry" />
        </mxCell>
        <mxCell id="VWnZA8_5SV95Ae4IL8HQ-24" value="Thêm phương tiện" style="ellipse;whiteSpace=wrap;html=1;" vertex="1" parent="1">
          <mxGeometry x="570" y="505" width="120" height="80" as="geometry" />
        </mxCell>
        <mxCell id="VWnZA8_5SV95Ae4IL8HQ-25" value="" style="endArrow=classic;html=1;rounded=0;dashed=1;entryX=0.181;entryY=0.004;entryDx=0;entryDy=0;entryPerimeter=0;exitX=1;exitY=1;exitDx=0;exitDy=0;" edge="1" parent="1" target="VWnZA8_5SV95Ae4IL8HQ-24">
          <mxGeometry width="50" height="50" relative="1" as="geometry">
            <mxPoint x="442" y="413" as="sourcePoint" />
            <mxPoint x="412" y="517" as="targetPoint" />
          </mxGeometry>
        </mxCell>
        <mxCell id="VWnZA8_5SV95Ae4IL8HQ-26" value="&amp;lt;&amp;lt;extend&amp;gt;&amp;gt;" style="text;html=1;strokeColor=none;fillColor=none;align=center;verticalAlign=middle;whiteSpace=wrap;rounded=0;" vertex="1" parent="1">
          <mxGeometry x="460" y="455" width="60" height="30" as="geometry" />
        </mxCell>
        <mxCell id="VWnZA8_5SV95Ae4IL8HQ-27" value="Danh sách phương tiện" style="ellipse;whiteSpace=wrap;html=1;" vertex="1" parent="1">
          <mxGeometry x="340" y="530" width="120" height="80" as="geometry" />
        </mxCell>
        <mxCell id="VWnZA8_5SV95Ae4IL8HQ-28" value="" style="endArrow=classic;html=1;rounded=0;dashed=1;" edge="1" parent="1">
          <mxGeometry width="50" height="50" relative="1" as="geometry">
            <mxPoint x="400" y="420" as="sourcePoint" />
            <mxPoint x="400" y="530" as="targetPoint" />
          </mxGeometry>
        </mxCell>
        <mxCell id="VWnZA8_5SV95Ae4IL8HQ-29" value="&amp;lt;&amp;lt;extend&amp;gt;&amp;gt;" style="text;html=1;strokeColor=none;fillColor=none;align=center;verticalAlign=middle;whiteSpace=wrap;rounded=0;" vertex="1" parent="1">
          <mxGeometry x="330" y="475" width="60" height="30" as="geometry" />
        </mxCell>
        <mxCell id="VWnZA8_5SV95Ae4IL8HQ-30" value="Xóa phương tiện" style="ellipse;whiteSpace=wrap;html=1;" vertex="1" parent="1">
          <mxGeometry x="170" y="530" width="120" height="80" as="geometry" />
        </mxCell>
        <mxCell id="VWnZA8_5SV95Ae4IL8HQ-31" value="" style="endArrow=classic;html=1;rounded=0;dashed=1;exitX=0.059;exitY=0.841;exitDx=0;exitDy=0;exitPerimeter=0;" edge="1" parent="1" source="VWnZA8_5SV95Ae4IL8HQ-4">
          <mxGeometry width="50" height="50" relative="1" as="geometry">
            <mxPoint x="230" y="420" as="sourcePoint" />
            <mxPoint x="230" y="530" as="targetPoint" />
          </mxGeometry>
        </mxCell>
        <mxCell id="VWnZA8_5SV95Ae4IL8HQ-32" value="&amp;lt;&amp;lt;extend&amp;gt;&amp;gt;" style="text;html=1;strokeColor=none;fillColor=none;align=center;verticalAlign=middle;whiteSpace=wrap;rounded=0;" vertex="1" parent="1">
          <mxGeometry x="210" y="455" width="60" height="30" as="geometry" />
        </mxCell>
      </root>
    </mxGraphModel>
  </diagram>
</mxfile>
